<mxfile host="app.diagrams.net" modified="2020-10-29T05:25:12.407Z" agent="5.0 (Windows)" etag="8ahVWxLLQQ1nIvE3DigW" version="13.8.6" type="github">
  <diagram name="Page-1" id="ff44883e-f642-bcb2-894b-16b3d25a3f0b">
    <mxGraphModel dx="1736" dy="902" grid="1" gridSize="10" guides="1" tooltips="1" connect="1" arrows="1" fold="1" page="1" pageScale="1.5" pageWidth="1169" pageHeight="826" background="#ffffff" math="0" shadow="0">
      <root>
        <mxCell id="0" style=";html=1;" />
        <mxCell id="1" style=";html=1;" parent="0" />
        <mxCell id="f0bcc99304e6f5a-9" style="edgeStyle=none;curved=1;html=1;startSize=10;endArrow=classic;endFill=1;endSize=10;strokeColor=#000000;strokeWidth=2;fontSize=12;exitX=0;exitY=0.5;exitDx=0;exitDy=0;" parent="1" source="Hn6eU7oYiaAclMFf-cb3-10" target="f0bcc99304e6f5a-2" edge="1">
          <mxGeometry relative="1" as="geometry">
            <mxPoint x="282.76443768930585" y="580.5286443773298" as="sourcePoint" />
          </mxGeometry>
        </mxCell>
        <mxCell id="f0bcc99304e6f5a-10" style="edgeStyle=none;curved=1;html=1;startSize=10;endFill=1;endSize=10;strokeWidth=2;fontSize=12;" parent="1" source="f0bcc99304e6f5a-2" target="f0bcc99304e6f5a-6" edge="1">
          <mxGeometry relative="1" as="geometry" />
        </mxCell>
        <mxCell id="f0bcc99304e6f5a-2" value="D4" style="ellipse;whiteSpace=wrap;html=1;rounded=0;shadow=1;strokeColor=#006EAF;strokeWidth=1;fontSize=30;align=center;fillColor=#1ba1e2;fontColor=#ffffff;" parent="1" vertex="1">
          <mxGeometry x="490" y="380" width="80" height="80" as="geometry" />
        </mxCell>
        <mxCell id="f0bcc99304e6f5a-3" value="A6" style="ellipse;whiteSpace=wrap;html=1;rounded=0;shadow=1;strokeColor=#006EAF;strokeWidth=1;fontSize=30;align=center;fillColor=#1ba1e2;fontColor=#ffffff;" parent="1" vertex="1">
          <mxGeometry x="490" y="760" width="80" height="80" as="geometry" />
        </mxCell>
        <mxCell id="f0bcc99304e6f5a-15" style="edgeStyle=none;curved=1;html=1;startSize=10;endFill=1;endSize=10;strokeWidth=2;fontSize=12;entryX=1;entryY=0.25;entryDx=0;entryDy=0;" parent="1" source="f0bcc99304e6f5a-4" target="Hn6eU7oYiaAclMFf-cb3-12" edge="1">
          <mxGeometry relative="1" as="geometry">
            <mxPoint x="1497.8760788706359" y="563.8338769669476" as="targetPoint" />
          </mxGeometry>
        </mxCell>
        <mxCell id="f0bcc99304e6f5a-4" value="5B" style="ellipse;whiteSpace=wrap;html=1;rounded=0;shadow=1;strokeColor=#006EAF;strokeWidth=1;fontSize=30;align=center;fillColor=#1ba1e2;fontColor=#ffffff;" parent="1" vertex="1">
          <mxGeometry x="1160" y="770" width="80" height="80" as="geometry" />
        </mxCell>
        <mxCell id="f0bcc99304e6f5a-12" style="edgeStyle=none;curved=1;html=1;startSize=10;endFill=1;endSize=10;strokeWidth=2;fontSize=12;" parent="1" source="f0bcc99304e6f5a-5" target="f0bcc99304e6f5a-7" edge="1">
          <mxGeometry relative="1" as="geometry" />
        </mxCell>
        <mxCell id="f0bcc99304e6f5a-5" value="5G" style="ellipse;whiteSpace=wrap;html=1;rounded=0;shadow=1;strokeColor=#006EAF;strokeWidth=1;fontSize=30;align=center;fillColor=#1ba1e2;fontColor=#ffffff;" parent="1" vertex="1">
          <mxGeometry x="980" y="440" width="80" height="80" as="geometry" />
        </mxCell>
        <mxCell id="f0bcc99304e6f5a-14" style="edgeStyle=none;curved=1;html=1;startSize=10;endFill=1;endSize=10;strokeWidth=2;fontSize=12;" parent="1" source="f0bcc99304e6f5a-6" target="f0bcc99304e6f5a-4" edge="1">
          <mxGeometry relative="1" as="geometry" />
        </mxCell>
        <mxCell id="f0bcc99304e6f5a-6" value="F7" style="ellipse;whiteSpace=wrap;html=1;rounded=0;shadow=1;strokeColor=#006EAF;strokeWidth=1;fontSize=30;align=center;fillColor=#1ba1e2;fontColor=#ffffff;" parent="1" vertex="1">
          <mxGeometry x="730" y="660" width="80" height="80" as="geometry" />
        </mxCell>
        <mxCell id="f0bcc99304e6f5a-13" style="edgeStyle=none;curved=1;html=1;startSize=10;endFill=1;endSize=10;strokeWidth=2;fontSize=12;entryX=0;entryY=0;entryDx=0;entryDy=0;" parent="1" source="f0bcc99304e6f5a-7" target="Hn6eU7oYiaAclMFf-cb3-13" edge="1">
          <mxGeometry relative="1" as="geometry">
            <mxPoint x="1510" y="523" as="targetPoint" />
          </mxGeometry>
        </mxCell>
        <mxCell id="f0bcc99304e6f5a-7" value="H7" style="ellipse;whiteSpace=wrap;html=1;rounded=0;shadow=1;strokeColor=#006EAF;strokeWidth=1;fontSize=30;align=center;fillColor=#1ba1e2;fontColor=#ffffff;" parent="1" vertex="1">
          <mxGeometry x="1180" y="270" width="80" height="80" as="geometry" />
        </mxCell>
        <mxCell id="Hn6eU7oYiaAclMFf-cb3-4" value="" style="endArrow=classic;html=1;entryX=0;entryY=0.5;entryDx=0;entryDy=0;exitX=0;exitY=0.25;exitDx=0;exitDy=0;" edge="1" parent="1" source="Hn6eU7oYiaAclMFf-cb3-10" target="f0bcc99304e6f5a-3">
          <mxGeometry width="50" height="50" relative="1" as="geometry">
            <mxPoint x="276.8198051533948" y="636.8198051533948" as="sourcePoint" />
            <mxPoint x="300" y="600" as="targetPoint" />
          </mxGeometry>
        </mxCell>
        <mxCell id="Hn6eU7oYiaAclMFf-cb3-8" value="" style="endArrow=classic;html=1;exitX=1;exitY=0.35;exitDx=0;exitDy=0;exitPerimeter=0;entryX=0;entryY=1;entryDx=0;entryDy=0;" edge="1" parent="1" source="f0bcc99304e6f5a-3" target="f0bcc99304e6f5a-6">
          <mxGeometry width="50" height="50" relative="1" as="geometry">
            <mxPoint x="820" y="740" as="sourcePoint" />
            <mxPoint x="870" y="690" as="targetPoint" />
          </mxGeometry>
        </mxCell>
        <mxCell id="Hn6eU7oYiaAclMFf-cb3-9" value="" style="endArrow=classic;html=1;entryX=0;entryY=1;entryDx=0;entryDy=0;exitX=1;exitY=0;exitDx=0;exitDy=0;" edge="1" parent="1" source="f0bcc99304e6f5a-6" target="f0bcc99304e6f5a-5">
          <mxGeometry width="50" height="50" relative="1" as="geometry">
            <mxPoint x="860" y="610" as="sourcePoint" />
            <mxPoint x="870" y="690" as="targetPoint" />
          </mxGeometry>
        </mxCell>
        <mxCell id="Hn6eU7oYiaAclMFf-cb3-10" value="&lt;font style=&quot;font-size: 31px&quot;&gt;INICIO&lt;/font&gt;" style="rounded=1;whiteSpace=wrap;html=1;direction=west;fillColor=#dae8fc;strokeColor=#6c8ebf;" vertex="1" parent="1">
          <mxGeometry x="110" y="550" width="140" height="90" as="geometry" />
        </mxCell>
        <mxCell id="Hn6eU7oYiaAclMFf-cb3-12" value="&lt;font style=&quot;font-size: 25px&quot;&gt;FIN&lt;/font&gt;" style="rounded=1;whiteSpace=wrap;html=1;direction=west;fillColor=#dae8fc;strokeColor=#6c8ebf;" vertex="1" parent="1">
          <mxGeometry x="1530" y="640" width="140" height="90" as="geometry" />
        </mxCell>
        <mxCell id="Hn6eU7oYiaAclMFf-cb3-13" value="&lt;font style=&quot;font-size: 33px&quot;&gt;C8&lt;/font&gt;" style="ellipse;whiteSpace=wrap;html=1;aspect=fixed;fillColor=#1ba1e2;strokeColor=#006EAF;fontColor=#ffffff;" vertex="1" parent="1">
          <mxGeometry x="1380" y="410" width="80" height="80" as="geometry" />
        </mxCell>
        <mxCell id="Hn6eU7oYiaAclMFf-cb3-15" value="" style="endArrow=classic;html=1;exitX=1;exitY=1;exitDx=0;exitDy=0;entryX=1;entryY=0.5;entryDx=0;entryDy=0;" edge="1" parent="1" source="Hn6eU7oYiaAclMFf-cb3-13" target="Hn6eU7oYiaAclMFf-cb3-12">
          <mxGeometry width="50" height="50" relative="1" as="geometry">
            <mxPoint x="820" y="740" as="sourcePoint" />
            <mxPoint x="870" y="690" as="targetPoint" />
          </mxGeometry>
        </mxCell>
        <mxCell id="Hn6eU7oYiaAclMFf-cb3-16" value="4" style="text;html=1;strokeColor=none;fillColor=none;align=center;verticalAlign=middle;whiteSpace=wrap;rounded=0;fontSize=25;strokeWidth=3;" vertex="1" parent="1">
          <mxGeometry x="340" y="460" width="40" height="50" as="geometry" />
        </mxCell>
        <mxCell id="Hn6eU7oYiaAclMFf-cb3-17" value="6" style="text;html=1;strokeColor=none;fillColor=none;align=center;verticalAlign=middle;whiteSpace=wrap;rounded=0;fontSize=25;" vertex="1" parent="1">
          <mxGeometry x="330" y="710" width="40" height="20" as="geometry" />
        </mxCell>
        <mxCell id="Hn6eU7oYiaAclMFf-cb3-22" value="7" style="text;html=1;strokeColor=none;fillColor=none;align=center;verticalAlign=middle;whiteSpace=wrap;rounded=0;fontSize=25;" vertex="1" parent="1">
          <mxGeometry x="630" y="520" width="40" height="40" as="geometry" />
        </mxCell>
        <mxCell id="Hn6eU7oYiaAclMFf-cb3-23" value="7" style="text;html=1;strokeColor=none;fillColor=none;align=center;verticalAlign=middle;whiteSpace=wrap;rounded=0;fontSize=25;" vertex="1" parent="1">
          <mxGeometry x="640" y="770" width="40" height="20" as="geometry" />
        </mxCell>
        <mxCell id="Hn6eU7oYiaAclMFf-cb3-25" value="" style="endArrow=classic;html=1;fontSize=25;exitX=1;exitY=0.5;exitDx=0;exitDy=0;entryX=0;entryY=0;entryDx=0;entryDy=0;" edge="1" parent="1" source="f0bcc99304e6f5a-2" target="f0bcc99304e6f5a-5">
          <mxGeometry width="50" height="50" relative="1" as="geometry">
            <mxPoint x="838.2842712474621" y="318.28427124746213" as="sourcePoint" />
            <mxPoint x="870" y="510" as="targetPoint" />
          </mxGeometry>
        </mxCell>
        <mxCell id="Hn6eU7oYiaAclMFf-cb3-26" value="5" style="text;html=1;strokeColor=none;fillColor=none;align=center;verticalAlign=middle;whiteSpace=wrap;rounded=0;fontSize=25;" vertex="1" parent="1">
          <mxGeometry x="760" y="410" width="40" height="20" as="geometry" />
        </mxCell>
        <mxCell id="Hn6eU7oYiaAclMFf-cb3-27" value="5" style="text;html=1;strokeColor=none;fillColor=none;align=center;verticalAlign=middle;whiteSpace=wrap;rounded=0;fontSize=25;" vertex="1" parent="1">
          <mxGeometry x="910" y="585" width="40" height="20" as="geometry" />
        </mxCell>
        <mxCell id="Hn6eU7oYiaAclMFf-cb3-28" value="5" style="text;html=1;strokeColor=none;fillColor=none;align=center;verticalAlign=middle;whiteSpace=wrap;rounded=0;fontSize=25;" vertex="1" parent="1">
          <mxGeometry x="950" y="770" width="40" height="20" as="geometry" />
        </mxCell>
        <mxCell id="Hn6eU7oYiaAclMFf-cb3-32" value="7" style="text;html=1;strokeColor=none;fillColor=none;align=center;verticalAlign=middle;whiteSpace=wrap;rounded=0;fontSize=25;" vertex="1" parent="1">
          <mxGeometry x="1100" y="360" width="40" height="20" as="geometry" />
        </mxCell>
        <mxCell id="Hn6eU7oYiaAclMFf-cb3-33" value="8" style="text;html=1;strokeColor=none;fillColor=none;align=center;verticalAlign=middle;whiteSpace=wrap;rounded=0;fontSize=25;" vertex="1" parent="1">
          <mxGeometry x="1310" y="350" width="40" height="20" as="geometry" />
        </mxCell>
        <mxCell id="Hn6eU7oYiaAclMFf-cb3-35" value="" style="shape=table;html=1;whiteSpace=wrap;startSize=0;container=1;collapsible=0;childLayout=tableLayout;strokeWidth=3;fontSize=25;" vertex="1" parent="1">
          <mxGeometry x="470" y="280" width="120" height="80" as="geometry" />
        </mxCell>
        <mxCell id="Hn6eU7oYiaAclMFf-cb3-36" value="" style="shape=partialRectangle;html=1;whiteSpace=wrap;collapsible=0;dropTarget=0;pointerEvents=0;fillColor=none;top=0;left=0;bottom=0;right=0;points=[[0,0.5],[1,0.5]];portConstraint=eastwest;" vertex="1" parent="Hn6eU7oYiaAclMFf-cb3-35">
          <mxGeometry width="120" height="40" as="geometry" />
        </mxCell>
        <mxCell id="Hn6eU7oYiaAclMFf-cb3-37" value="&lt;font style=&quot;font-size: 24px&quot;&gt;0&lt;/font&gt;" style="shape=partialRectangle;html=1;whiteSpace=wrap;connectable=0;fillColor=none;top=0;left=0;bottom=0;right=0;overflow=hidden;strokeWidth=11;" vertex="1" parent="Hn6eU7oYiaAclMFf-cb3-36">
          <mxGeometry width="60" height="40" as="geometry" />
        </mxCell>
        <mxCell id="Hn6eU7oYiaAclMFf-cb3-38" value="&lt;font style=&quot;font-size: 24px&quot;&gt;0&lt;/font&gt;" style="shape=partialRectangle;html=1;whiteSpace=wrap;connectable=0;fillColor=none;top=0;left=0;bottom=0;right=0;overflow=hidden;" vertex="1" parent="Hn6eU7oYiaAclMFf-cb3-36">
          <mxGeometry x="60" width="60" height="40" as="geometry" />
        </mxCell>
        <mxCell id="Hn6eU7oYiaAclMFf-cb3-40" value="" style="shape=partialRectangle;html=1;whiteSpace=wrap;collapsible=0;dropTarget=0;pointerEvents=0;fillColor=none;top=0;left=0;bottom=0;right=0;points=[[0,0.5],[1,0.5]];portConstraint=eastwest;" vertex="1" parent="Hn6eU7oYiaAclMFf-cb3-35">
          <mxGeometry y="40" width="120" height="40" as="geometry" />
        </mxCell>
        <mxCell id="Hn6eU7oYiaAclMFf-cb3-41" value="&lt;font style=&quot;font-size: 24px&quot;&gt;0&lt;/font&gt;" style="shape=partialRectangle;html=1;whiteSpace=wrap;connectable=0;fillColor=none;top=0;left=0;bottom=0;right=0;overflow=hidden;" vertex="1" parent="Hn6eU7oYiaAclMFf-cb3-40">
          <mxGeometry width="60" height="40" as="geometry" />
        </mxCell>
        <mxCell id="Hn6eU7oYiaAclMFf-cb3-42" value="&lt;font style=&quot;font-size: 24px&quot;&gt;0&lt;/font&gt;" style="shape=partialRectangle;html=1;whiteSpace=wrap;connectable=0;fillColor=none;top=0;left=0;bottom=0;right=0;overflow=hidden;" vertex="1" parent="Hn6eU7oYiaAclMFf-cb3-40">
          <mxGeometry x="60" width="60" height="40" as="geometry" />
        </mxCell>
        <mxCell id="Hn6eU7oYiaAclMFf-cb3-69" value="" style="shape=table;html=1;whiteSpace=wrap;startSize=0;container=1;collapsible=0;childLayout=tableLayout;strokeWidth=3;fontSize=25;" vertex="1" parent="1">
          <mxGeometry x="470" y="280" width="120" height="80" as="geometry" />
        </mxCell>
        <mxCell id="Hn6eU7oYiaAclMFf-cb3-70" value="" style="shape=partialRectangle;html=1;whiteSpace=wrap;collapsible=0;dropTarget=0;pointerEvents=0;fillColor=none;top=0;left=0;bottom=0;right=0;points=[[0,0.5],[1,0.5]];portConstraint=eastwest;" vertex="1" parent="Hn6eU7oYiaAclMFf-cb3-69">
          <mxGeometry width="120" height="40" as="geometry" />
        </mxCell>
        <mxCell id="Hn6eU7oYiaAclMFf-cb3-71" value="&lt;font style=&quot;font-size: 24px&quot;&gt;0&lt;/font&gt;" style="shape=partialRectangle;html=1;whiteSpace=wrap;connectable=0;fillColor=none;top=0;left=0;bottom=0;right=0;overflow=hidden;strokeWidth=11;" vertex="1" parent="Hn6eU7oYiaAclMFf-cb3-70">
          <mxGeometry width="60" height="40" as="geometry" />
        </mxCell>
        <mxCell id="Hn6eU7oYiaAclMFf-cb3-72" value="&lt;font style=&quot;font-size: 24px&quot;&gt;4&lt;/font&gt;" style="shape=partialRectangle;html=1;whiteSpace=wrap;connectable=0;fillColor=none;top=0;left=0;bottom=0;right=0;overflow=hidden;" vertex="1" parent="Hn6eU7oYiaAclMFf-cb3-70">
          <mxGeometry x="60" width="60" height="40" as="geometry" />
        </mxCell>
        <mxCell id="Hn6eU7oYiaAclMFf-cb3-73" value="" style="shape=partialRectangle;html=1;whiteSpace=wrap;collapsible=0;dropTarget=0;pointerEvents=0;fillColor=none;top=0;left=0;bottom=0;right=0;points=[[0,0.5],[1,0.5]];portConstraint=eastwest;" vertex="1" parent="Hn6eU7oYiaAclMFf-cb3-69">
          <mxGeometry y="40" width="120" height="40" as="geometry" />
        </mxCell>
        <mxCell id="Hn6eU7oYiaAclMFf-cb3-74" value="&lt;font style=&quot;font-size: 24px&quot;&gt;2&lt;/font&gt;" style="shape=partialRectangle;html=1;whiteSpace=wrap;connectable=0;fillColor=none;top=0;left=0;bottom=0;right=0;overflow=hidden;" vertex="1" parent="Hn6eU7oYiaAclMFf-cb3-73">
          <mxGeometry width="60" height="40" as="geometry" />
        </mxCell>
        <mxCell id="Hn6eU7oYiaAclMFf-cb3-75" value="&lt;font style=&quot;font-size: 24px&quot;&gt;6&lt;/font&gt;" style="shape=partialRectangle;html=1;whiteSpace=wrap;connectable=0;fillColor=none;top=0;left=0;bottom=0;right=0;overflow=hidden;" vertex="1" parent="Hn6eU7oYiaAclMFf-cb3-73">
          <mxGeometry x="60" width="60" height="40" as="geometry" />
        </mxCell>
        <mxCell id="Hn6eU7oYiaAclMFf-cb3-76" value="" style="shape=table;html=1;whiteSpace=wrap;startSize=0;container=1;collapsible=0;childLayout=tableLayout;strokeWidth=3;fontSize=25;" vertex="1" parent="1">
          <mxGeometry x="710" y="760" width="120" height="80" as="geometry" />
        </mxCell>
        <mxCell id="Hn6eU7oYiaAclMFf-cb3-77" value="" style="shape=partialRectangle;html=1;whiteSpace=wrap;collapsible=0;dropTarget=0;pointerEvents=0;fillColor=none;top=0;left=0;bottom=0;right=0;points=[[0,0.5],[1,0.5]];portConstraint=eastwest;" vertex="1" parent="Hn6eU7oYiaAclMFf-cb3-76">
          <mxGeometry width="120" height="40" as="geometry" />
        </mxCell>
        <mxCell id="Hn6eU7oYiaAclMFf-cb3-78" value="&lt;font style=&quot;font-size: 24px&quot;&gt;6&lt;/font&gt;" style="shape=partialRectangle;html=1;whiteSpace=wrap;connectable=0;fillColor=none;top=0;left=0;bottom=0;right=0;overflow=hidden;strokeWidth=11;" vertex="1" parent="Hn6eU7oYiaAclMFf-cb3-77">
          <mxGeometry width="60" height="40" as="geometry" />
        </mxCell>
        <mxCell id="Hn6eU7oYiaAclMFf-cb3-79" value="&lt;font style=&quot;font-size: 24px&quot;&gt;13&lt;/font&gt;" style="shape=partialRectangle;html=1;whiteSpace=wrap;connectable=0;fillColor=none;top=0;left=0;bottom=0;right=0;overflow=hidden;" vertex="1" parent="Hn6eU7oYiaAclMFf-cb3-77">
          <mxGeometry x="60" width="60" height="40" as="geometry" />
        </mxCell>
        <mxCell id="Hn6eU7oYiaAclMFf-cb3-80" value="" style="shape=partialRectangle;html=1;whiteSpace=wrap;collapsible=0;dropTarget=0;pointerEvents=0;fillColor=none;top=0;left=0;bottom=0;right=0;points=[[0,0.5],[1,0.5]];portConstraint=eastwest;" vertex="1" parent="Hn6eU7oYiaAclMFf-cb3-76">
          <mxGeometry y="40" width="120" height="40" as="geometry" />
        </mxCell>
        <mxCell id="Hn6eU7oYiaAclMFf-cb3-81" value="&lt;font style=&quot;font-size: 24px&quot;&gt;6&lt;/font&gt;" style="shape=partialRectangle;html=1;whiteSpace=wrap;connectable=0;fillColor=none;top=0;left=0;bottom=0;right=0;overflow=hidden;" vertex="1" parent="Hn6eU7oYiaAclMFf-cb3-80">
          <mxGeometry width="60" height="40" as="geometry" />
        </mxCell>
        <mxCell id="Hn6eU7oYiaAclMFf-cb3-82" value="&lt;font style=&quot;font-size: 24px&quot;&gt;13&lt;/font&gt;" style="shape=partialRectangle;html=1;whiteSpace=wrap;connectable=0;fillColor=none;top=0;left=0;bottom=0;right=0;overflow=hidden;" vertex="1" parent="Hn6eU7oYiaAclMFf-cb3-80">
          <mxGeometry x="60" width="60" height="40" as="geometry" />
        </mxCell>
        <mxCell id="Hn6eU7oYiaAclMFf-cb3-83" value="" style="shape=table;html=1;whiteSpace=wrap;startSize=0;container=1;collapsible=0;childLayout=tableLayout;strokeWidth=3;fontSize=25;" vertex="1" parent="1">
          <mxGeometry x="1140" y="860" width="120" height="80" as="geometry" />
        </mxCell>
        <mxCell id="Hn6eU7oYiaAclMFf-cb3-84" value="" style="shape=partialRectangle;html=1;whiteSpace=wrap;collapsible=0;dropTarget=0;pointerEvents=0;fillColor=none;top=0;left=0;bottom=0;right=0;points=[[0,0.5],[1,0.5]];portConstraint=eastwest;" vertex="1" parent="Hn6eU7oYiaAclMFf-cb3-83">
          <mxGeometry width="120" height="40" as="geometry" />
        </mxCell>
        <mxCell id="Hn6eU7oYiaAclMFf-cb3-85" value="&lt;font style=&quot;font-size: 24px&quot;&gt;13&lt;/font&gt;" style="shape=partialRectangle;html=1;whiteSpace=wrap;connectable=0;fillColor=none;top=0;left=0;bottom=0;right=0;overflow=hidden;strokeWidth=11;" vertex="1" parent="Hn6eU7oYiaAclMFf-cb3-84">
          <mxGeometry width="60" height="40" as="geometry" />
        </mxCell>
        <mxCell id="Hn6eU7oYiaAclMFf-cb3-86" value="&lt;font style=&quot;font-size: 24px&quot;&gt;18&lt;/font&gt;" style="shape=partialRectangle;html=1;whiteSpace=wrap;connectable=0;fillColor=none;top=0;left=0;bottom=0;right=0;overflow=hidden;" vertex="1" parent="Hn6eU7oYiaAclMFf-cb3-84">
          <mxGeometry x="60" width="60" height="40" as="geometry" />
        </mxCell>
        <mxCell id="Hn6eU7oYiaAclMFf-cb3-87" value="" style="shape=partialRectangle;html=1;whiteSpace=wrap;collapsible=0;dropTarget=0;pointerEvents=0;fillColor=none;top=0;left=0;bottom=0;right=0;points=[[0,0.5],[1,0.5]];portConstraint=eastwest;" vertex="1" parent="Hn6eU7oYiaAclMFf-cb3-83">
          <mxGeometry y="40" width="120" height="40" as="geometry" />
        </mxCell>
        <mxCell id="Hn6eU7oYiaAclMFf-cb3-88" value="&lt;font style=&quot;font-size: 24px&quot;&gt;28&lt;/font&gt;" style="shape=partialRectangle;html=1;whiteSpace=wrap;connectable=0;fillColor=none;top=0;left=0;bottom=0;right=0;overflow=hidden;" vertex="1" parent="Hn6eU7oYiaAclMFf-cb3-87">
          <mxGeometry width="60" height="40" as="geometry" />
        </mxCell>
        <mxCell id="Hn6eU7oYiaAclMFf-cb3-89" value="&lt;font style=&quot;font-size: 24px&quot;&gt;33&lt;/font&gt;" style="shape=partialRectangle;html=1;whiteSpace=wrap;connectable=0;fillColor=none;top=0;left=0;bottom=0;right=0;overflow=hidden;" vertex="1" parent="Hn6eU7oYiaAclMFf-cb3-87">
          <mxGeometry x="60" width="60" height="40" as="geometry" />
        </mxCell>
        <mxCell id="Hn6eU7oYiaAclMFf-cb3-90" value="" style="shape=table;html=1;whiteSpace=wrap;startSize=0;container=1;collapsible=0;childLayout=tableLayout;strokeWidth=3;fontSize=25;" vertex="1" parent="1">
          <mxGeometry x="970" y="530" width="120" height="80" as="geometry" />
        </mxCell>
        <mxCell id="Hn6eU7oYiaAclMFf-cb3-91" value="" style="shape=partialRectangle;html=1;whiteSpace=wrap;collapsible=0;dropTarget=0;pointerEvents=0;fillColor=none;top=0;left=0;bottom=0;right=0;points=[[0,0.5],[1,0.5]];portConstraint=eastwest;" vertex="1" parent="Hn6eU7oYiaAclMFf-cb3-90">
          <mxGeometry width="120" height="40" as="geometry" />
        </mxCell>
        <mxCell id="Hn6eU7oYiaAclMFf-cb3-92" value="&lt;font style=&quot;font-size: 24px&quot;&gt;13&lt;/font&gt;" style="shape=partialRectangle;html=1;whiteSpace=wrap;connectable=0;fillColor=none;top=0;left=0;bottom=0;right=0;overflow=hidden;strokeWidth=11;" vertex="1" parent="Hn6eU7oYiaAclMFf-cb3-91">
          <mxGeometry width="60" height="40" as="geometry" />
        </mxCell>
        <mxCell id="Hn6eU7oYiaAclMFf-cb3-93" value="&lt;font style=&quot;font-size: 24px&quot;&gt;18&lt;/font&gt;" style="shape=partialRectangle;html=1;whiteSpace=wrap;connectable=0;fillColor=none;top=0;left=0;bottom=0;right=0;overflow=hidden;" vertex="1" parent="Hn6eU7oYiaAclMFf-cb3-91">
          <mxGeometry x="60" width="60" height="40" as="geometry" />
        </mxCell>
        <mxCell id="Hn6eU7oYiaAclMFf-cb3-94" value="" style="shape=partialRectangle;html=1;whiteSpace=wrap;collapsible=0;dropTarget=0;pointerEvents=0;fillColor=none;top=0;left=0;bottom=0;right=0;points=[[0,0.5],[1,0.5]];portConstraint=eastwest;" vertex="1" parent="Hn6eU7oYiaAclMFf-cb3-90">
          <mxGeometry y="40" width="120" height="40" as="geometry" />
        </mxCell>
        <mxCell id="Hn6eU7oYiaAclMFf-cb3-95" value="&lt;font style=&quot;font-size: 24px&quot;&gt;13&lt;/font&gt;" style="shape=partialRectangle;html=1;whiteSpace=wrap;connectable=0;fillColor=none;top=0;left=0;bottom=0;right=0;overflow=hidden;" vertex="1" parent="Hn6eU7oYiaAclMFf-cb3-94">
          <mxGeometry width="60" height="40" as="geometry" />
        </mxCell>
        <mxCell id="Hn6eU7oYiaAclMFf-cb3-96" value="&lt;font style=&quot;font-size: 24px&quot;&gt;18&lt;/font&gt;" style="shape=partialRectangle;html=1;whiteSpace=wrap;connectable=0;fillColor=none;top=0;left=0;bottom=0;right=0;overflow=hidden;" vertex="1" parent="Hn6eU7oYiaAclMFf-cb3-94">
          <mxGeometry x="60" width="60" height="40" as="geometry" />
        </mxCell>
        <mxCell id="Hn6eU7oYiaAclMFf-cb3-104" value="" style="shape=table;html=1;whiteSpace=wrap;startSize=0;container=1;collapsible=0;childLayout=tableLayout;strokeWidth=3;fontSize=25;" vertex="1" parent="1">
          <mxGeometry x="1370" y="300" width="120" height="80" as="geometry" />
        </mxCell>
        <mxCell id="Hn6eU7oYiaAclMFf-cb3-105" value="" style="shape=partialRectangle;html=1;whiteSpace=wrap;collapsible=0;dropTarget=0;pointerEvents=0;fillColor=none;top=0;left=0;bottom=0;right=0;points=[[0,0.5],[1,0.5]];portConstraint=eastwest;" vertex="1" parent="Hn6eU7oYiaAclMFf-cb3-104">
          <mxGeometry width="120" height="40" as="geometry" />
        </mxCell>
        <mxCell id="Hn6eU7oYiaAclMFf-cb3-106" value="&lt;font style=&quot;font-size: 24px&quot;&gt;25&lt;/font&gt;" style="shape=partialRectangle;html=1;whiteSpace=wrap;connectable=0;fillColor=none;top=0;left=0;bottom=0;right=0;overflow=hidden;strokeWidth=11;" vertex="1" parent="Hn6eU7oYiaAclMFf-cb3-105">
          <mxGeometry width="60" height="40" as="geometry" />
        </mxCell>
        <mxCell id="Hn6eU7oYiaAclMFf-cb3-107" value="&lt;font style=&quot;font-size: 24px&quot;&gt;33&lt;/font&gt;" style="shape=partialRectangle;html=1;whiteSpace=wrap;connectable=0;fillColor=none;top=0;left=0;bottom=0;right=0;overflow=hidden;" vertex="1" parent="Hn6eU7oYiaAclMFf-cb3-105">
          <mxGeometry x="60" width="60" height="40" as="geometry" />
        </mxCell>
        <mxCell id="Hn6eU7oYiaAclMFf-cb3-108" value="" style="shape=partialRectangle;html=1;whiteSpace=wrap;collapsible=0;dropTarget=0;pointerEvents=0;fillColor=none;top=0;left=0;bottom=0;right=0;points=[[0,0.5],[1,0.5]];portConstraint=eastwest;" vertex="1" parent="Hn6eU7oYiaAclMFf-cb3-104">
          <mxGeometry y="40" width="120" height="40" as="geometry" />
        </mxCell>
        <mxCell id="Hn6eU7oYiaAclMFf-cb3-109" value="&lt;font style=&quot;font-size: 24px&quot;&gt;25&lt;/font&gt;" style="shape=partialRectangle;html=1;whiteSpace=wrap;connectable=0;fillColor=none;top=0;left=0;bottom=0;right=0;overflow=hidden;" vertex="1" parent="Hn6eU7oYiaAclMFf-cb3-108">
          <mxGeometry width="60" height="40" as="geometry" />
        </mxCell>
        <mxCell id="Hn6eU7oYiaAclMFf-cb3-110" value="&lt;font style=&quot;font-size: 24px&quot;&gt;33&lt;/font&gt;" style="shape=partialRectangle;html=1;whiteSpace=wrap;connectable=0;fillColor=none;top=0;left=0;bottom=0;right=0;overflow=hidden;" vertex="1" parent="Hn6eU7oYiaAclMFf-cb3-108">
          <mxGeometry x="60" width="60" height="40" as="geometry" />
        </mxCell>
        <mxCell id="Hn6eU7oYiaAclMFf-cb3-111" value="" style="shape=table;html=1;whiteSpace=wrap;startSize=0;container=1;collapsible=0;childLayout=tableLayout;strokeWidth=3;fontSize=25;" vertex="1" parent="1">
          <mxGeometry x="1160" y="170" width="120" height="80" as="geometry" />
        </mxCell>
        <mxCell id="Hn6eU7oYiaAclMFf-cb3-112" value="" style="shape=partialRectangle;html=1;whiteSpace=wrap;collapsible=0;dropTarget=0;pointerEvents=0;fillColor=none;top=0;left=0;bottom=0;right=0;points=[[0,0.5],[1,0.5]];portConstraint=eastwest;" vertex="1" parent="Hn6eU7oYiaAclMFf-cb3-111">
          <mxGeometry width="120" height="40" as="geometry" />
        </mxCell>
        <mxCell id="Hn6eU7oYiaAclMFf-cb3-113" value="&lt;font style=&quot;font-size: 24px&quot;&gt;18&lt;/font&gt;" style="shape=partialRectangle;html=1;whiteSpace=wrap;connectable=0;fillColor=none;top=0;left=0;bottom=0;right=0;overflow=hidden;strokeWidth=11;" vertex="1" parent="Hn6eU7oYiaAclMFf-cb3-112">
          <mxGeometry width="60" height="40" as="geometry" />
        </mxCell>
        <mxCell id="Hn6eU7oYiaAclMFf-cb3-114" value="&lt;font style=&quot;font-size: 24px&quot;&gt;25&lt;/font&gt;" style="shape=partialRectangle;html=1;whiteSpace=wrap;connectable=0;fillColor=none;top=0;left=0;bottom=0;right=0;overflow=hidden;" vertex="1" parent="Hn6eU7oYiaAclMFf-cb3-112">
          <mxGeometry x="60" width="60" height="40" as="geometry" />
        </mxCell>
        <mxCell id="Hn6eU7oYiaAclMFf-cb3-115" value="" style="shape=partialRectangle;html=1;whiteSpace=wrap;collapsible=0;dropTarget=0;pointerEvents=0;fillColor=none;top=0;left=0;bottom=0;right=0;points=[[0,0.5],[1,0.5]];portConstraint=eastwest;" vertex="1" parent="Hn6eU7oYiaAclMFf-cb3-111">
          <mxGeometry y="40" width="120" height="40" as="geometry" />
        </mxCell>
        <mxCell id="Hn6eU7oYiaAclMFf-cb3-116" value="&lt;font style=&quot;font-size: 24px&quot;&gt;18&lt;/font&gt;" style="shape=partialRectangle;html=1;whiteSpace=wrap;connectable=0;fillColor=none;top=0;left=0;bottom=0;right=0;overflow=hidden;" vertex="1" parent="Hn6eU7oYiaAclMFf-cb3-115">
          <mxGeometry width="60" height="40" as="geometry" />
        </mxCell>
        <mxCell id="Hn6eU7oYiaAclMFf-cb3-117" value="&lt;font style=&quot;font-size: 24px&quot;&gt;25&lt;/font&gt;" style="shape=partialRectangle;html=1;whiteSpace=wrap;connectable=0;fillColor=none;top=0;left=0;bottom=0;right=0;overflow=hidden;" vertex="1" parent="Hn6eU7oYiaAclMFf-cb3-115">
          <mxGeometry x="60" width="60" height="40" as="geometry" />
        </mxCell>
        <mxCell id="Hn6eU7oYiaAclMFf-cb3-118" value="" style="shape=table;html=1;whiteSpace=wrap;startSize=0;container=1;collapsible=0;childLayout=tableLayout;strokeWidth=3;fontSize=25;" vertex="1" parent="1">
          <mxGeometry x="480" y="670" width="120" height="80" as="geometry" />
        </mxCell>
        <mxCell id="Hn6eU7oYiaAclMFf-cb3-119" value="" style="shape=partialRectangle;html=1;whiteSpace=wrap;collapsible=0;dropTarget=0;pointerEvents=0;fillColor=none;top=0;left=0;bottom=0;right=0;points=[[0,0.5],[1,0.5]];portConstraint=eastwest;" vertex="1" parent="Hn6eU7oYiaAclMFf-cb3-118">
          <mxGeometry width="120" height="40" as="geometry" />
        </mxCell>
        <mxCell id="Hn6eU7oYiaAclMFf-cb3-120" value="&lt;font style=&quot;font-size: 24px&quot;&gt;0&lt;/font&gt;" style="shape=partialRectangle;html=1;whiteSpace=wrap;connectable=0;fillColor=none;top=0;left=0;bottom=0;right=0;overflow=hidden;strokeWidth=11;" vertex="1" parent="Hn6eU7oYiaAclMFf-cb3-119">
          <mxGeometry width="60" height="40" as="geometry" />
        </mxCell>
        <mxCell id="Hn6eU7oYiaAclMFf-cb3-121" value="&lt;font style=&quot;font-size: 24px&quot;&gt;6&lt;/font&gt;" style="shape=partialRectangle;html=1;whiteSpace=wrap;connectable=0;fillColor=none;top=0;left=0;bottom=0;right=0;overflow=hidden;" vertex="1" parent="Hn6eU7oYiaAclMFf-cb3-119">
          <mxGeometry x="60" width="60" height="40" as="geometry" />
        </mxCell>
        <mxCell id="Hn6eU7oYiaAclMFf-cb3-122" value="" style="shape=partialRectangle;html=1;whiteSpace=wrap;collapsible=0;dropTarget=0;pointerEvents=0;fillColor=none;top=0;left=0;bottom=0;right=0;points=[[0,0.5],[1,0.5]];portConstraint=eastwest;" vertex="1" parent="Hn6eU7oYiaAclMFf-cb3-118">
          <mxGeometry y="40" width="120" height="40" as="geometry" />
        </mxCell>
        <mxCell id="Hn6eU7oYiaAclMFf-cb3-123" value="&lt;font style=&quot;font-size: 24px&quot;&gt;0&lt;/font&gt;" style="shape=partialRectangle;html=1;whiteSpace=wrap;connectable=0;fillColor=none;top=0;left=0;bottom=0;right=0;overflow=hidden;" vertex="1" parent="Hn6eU7oYiaAclMFf-cb3-122">
          <mxGeometry width="60" height="40" as="geometry" />
        </mxCell>
        <mxCell id="Hn6eU7oYiaAclMFf-cb3-124" value="&lt;font style=&quot;font-size: 24px&quot;&gt;6&lt;/font&gt;" style="shape=partialRectangle;html=1;whiteSpace=wrap;connectable=0;fillColor=none;top=0;left=0;bottom=0;right=0;overflow=hidden;" vertex="1" parent="Hn6eU7oYiaAclMFf-cb3-122">
          <mxGeometry x="60" width="60" height="40" as="geometry" />
        </mxCell>
        <mxCell id="Hn6eU7oYiaAclMFf-cb3-125" value="" style="shape=table;html=1;whiteSpace=wrap;startSize=0;container=1;collapsible=0;childLayout=tableLayout;strokeWidth=3;fontSize=25;" vertex="1" parent="1">
          <mxGeometry x="1550" y="525" width="120" height="80" as="geometry" />
        </mxCell>
        <mxCell id="Hn6eU7oYiaAclMFf-cb3-126" value="" style="shape=partialRectangle;html=1;whiteSpace=wrap;collapsible=0;dropTarget=0;pointerEvents=0;fillColor=none;top=0;left=0;bottom=0;right=0;points=[[0,0.5],[1,0.5]];portConstraint=eastwest;" vertex="1" parent="Hn6eU7oYiaAclMFf-cb3-125">
          <mxGeometry width="120" height="40" as="geometry" />
        </mxCell>
        <mxCell id="Hn6eU7oYiaAclMFf-cb3-127" value="&lt;font style=&quot;font-size: 24px&quot;&gt;33&lt;/font&gt;" style="shape=partialRectangle;html=1;whiteSpace=wrap;connectable=0;fillColor=none;top=0;left=0;bottom=0;right=0;overflow=hidden;strokeWidth=11;" vertex="1" parent="Hn6eU7oYiaAclMFf-cb3-126">
          <mxGeometry width="60" height="40" as="geometry" />
        </mxCell>
        <mxCell id="Hn6eU7oYiaAclMFf-cb3-128" value="&lt;font style=&quot;font-size: 24px&quot;&gt;33&lt;/font&gt;" style="shape=partialRectangle;html=1;whiteSpace=wrap;connectable=0;fillColor=none;top=0;left=0;bottom=0;right=0;overflow=hidden;" vertex="1" parent="Hn6eU7oYiaAclMFf-cb3-126">
          <mxGeometry x="60" width="60" height="40" as="geometry" />
        </mxCell>
        <mxCell id="Hn6eU7oYiaAclMFf-cb3-129" value="" style="shape=partialRectangle;html=1;whiteSpace=wrap;collapsible=0;dropTarget=0;pointerEvents=0;fillColor=none;top=0;left=0;bottom=0;right=0;points=[[0,0.5],[1,0.5]];portConstraint=eastwest;" vertex="1" parent="Hn6eU7oYiaAclMFf-cb3-125">
          <mxGeometry y="40" width="120" height="40" as="geometry" />
        </mxCell>
        <mxCell id="Hn6eU7oYiaAclMFf-cb3-130" value="&lt;font style=&quot;font-size: 24px&quot;&gt;33&lt;/font&gt;" style="shape=partialRectangle;html=1;whiteSpace=wrap;connectable=0;fillColor=none;top=0;left=0;bottom=0;right=0;overflow=hidden;" vertex="1" parent="Hn6eU7oYiaAclMFf-cb3-129">
          <mxGeometry width="60" height="40" as="geometry" />
        </mxCell>
        <mxCell id="Hn6eU7oYiaAclMFf-cb3-131" value="&lt;font style=&quot;font-size: 24px&quot;&gt;33&lt;/font&gt;" style="shape=partialRectangle;html=1;whiteSpace=wrap;connectable=0;fillColor=none;top=0;left=0;bottom=0;right=0;overflow=hidden;" vertex="1" parent="Hn6eU7oYiaAclMFf-cb3-129">
          <mxGeometry x="60" width="60" height="40" as="geometry" />
        </mxCell>
      </root>
    </mxGraphModel>
  </diagram>
</mxfile>
